<svg width="249" height="303" viewBox="0 0 249 303" fill="none" xmlns="http://www.w3.org/2000/svg">
<path d="M217.789 291.231H30.6007C20.1706 291.231 11.6562 282.334 11.6562 271.478V29.6703C11.6562 18.8145 20.1706 9.91699 30.6007 9.91699H217.789C228.219 9.91699 236.733 18.8145 236.733 29.6703V271.478C236.733 282.334 228.219 291.231 217.789 291.231Z" fill="#F7A02D"/>
<path d="M29.0633 2.25467C29.0633 2.25467 0.497678 0.807222 3.22227 33.5449" stroke="#F7A02D" stroke-width="4.27972" stroke-linecap="round" stroke-linejoin="round"/>
<path d="M5.6059 46.3588C5.6059 47.7211 4.49903 48.828 3.13674 48.828C1.77444 48.828 0.625 47.7211 0.625 46.3588C0.625 44.9965 1.77444 43.8896 3.13674 43.8896C4.49903 43.8896 5.6059 44.9965 5.6059 46.3588Z" fill="#F7A02D"/>
<path d="M218.977 297.788C218.977 297.788 247.542 299.193 244.775 266.455" stroke="#F7A02D" stroke-width="4.27972" stroke-linecap="round" stroke-linejoin="round"/>
<path d="M242.391 253.684C242.391 252.321 243.54 251.172 244.902 251.172C246.265 251.172 247.372 252.321 247.372 253.684C247.372 255.046 246.265 256.153 244.902 256.153C243.54 256.153 242.391 255.046 242.391 253.684Z" fill="#B27676"/>
<path d="M95.2625 299.619C95.2625 301.023 94.1557 302.13 92.7934 302.13C91.4311 302.13 90.3242 301.023 90.3242 299.619C90.3242 298.256 91.4311 297.149 92.7934 297.149C94.1557 297.149 95.2625 298.256 95.2625 299.619Z" fill="#F7A02D"/>
<path d="M248.094 51.9355C248.094 53.2978 246.987 54.4472 245.625 54.4472C244.263 54.4472 243.113 53.2978 243.113 51.9355C243.113 50.5732 244.263 49.4663 245.625 49.4663C246.987 49.4663 248.094 50.5732 248.094 51.9355Z" fill="#F7A02D"/>
<path d="M245.625 62.1104V102.341" stroke="#F7A02D" stroke-width="4.27972" stroke-linecap="round" stroke-linejoin="round"/>
<path d="M46.6016 299.618H82.7876" stroke="#F7A02D" stroke-width="4.27972" stroke-linecap="round" stroke-linejoin="round"/>
</svg>
